<?xml version="1.0" encoding="utf-8"?>
<!-- Generator: Adobe Illustrator 27.0.0, SVG Export Plug-In . SVG Version: 6.00 Build 0)  -->
<svg version="1.1" id="Layer_2" xmlns="http://www.w3.org/2000/svg" xmlns:xlink="http://www.w3.org/1999/xlink" x="0px" y="0px"
     viewBox="0 0 2000 2000" style="enable-background:new 0 0 2000 2000;" xml:space="preserve">
<style type="text/css">
	.st0{fill:url(#SVGID_1_);}
	.st1{fill:#FFFFFF;}
	.st2{fill:#E83382;}
</style>
  <rect width="2000" height="2000" fill="#1a1a1a"/>
  <g>
	<g>
		
			<linearGradient id="SVGID_1_" gradientUnits="userSpaceOnUse" x1="180.5334" y1="482.0342" x2="1581.7266" y2="482.0342" gradientTransform="matrix(1 0 0 -1 0 2000)">
			<stop  offset="0" style="stop-color:#EF6332"/>
              <stop  offset="1" style="stop-color:#E83382"/>
		</linearGradient>
      <path class="st0" d="M1581.7,1355L1581.7,1355H231.3l-50.8,325.9h1345.4L1581.7,1355L1581.7,1355L1581.7,1355z"/>
	</g>
    <g>
		<path class="st1" d="M1581.7,1355L1581.7,1355L1581.7,1355z"/>
	</g>
    <g>
		<polygon class="st1" points="398.6,1653.9 441.1,1385 368.4,1385 353.1,1481.2 318.6,1481.2 333.9,1385 261.1,1384.8 
			218.4,1653.9 291.2,1653.9 308.5,1544.7 343.1,1544.7 325.8,1653.9 		"/>
      <path class="st1" d="M508.7,1658.4c73.8,0,114.4-73.5,124.7-139.1c10.3-65.7-6.9-139.1-80.7-139.1s-114.4,73.5-124.7,139.1
			C417.7,1585.1,434.9,1658.4,508.7,1658.4z M502.2,1519.4c2.6-16.7,12.4-71.3,39.8-71.3c27.4,0,19.8,54.6,17.2,71.3
			c-2.6,16.7-12.4,71.3-39.8,71.3C492,1590.7,499.6,1536.1,502.2,1519.4z"/>
      <polygon class="st1" points="935.1,1385 862.3,1385 819.7,1653.9 892.5,1653.9 		"/>
      <path class="st1" d="M827.9,1474.4c11.2-71-31.5-89.5-94.6-89.5H663l-42.6,268.9h72.8l11.3-71.7c2-13.2,3.5-26.3,5.2-39.6l0.8-0.7
			l22.6,112H812l-36.4-112C806.1,1530.5,823.2,1504,827.9,1474.4z M755.6,1475.2c-2.8,17.4-15.8,34.3-35,34.3l-4.6-0.4l10.5-66.4
			C746.7,1441.6,759.5,1451.6,755.6,1475.2z"/>
      <path class="st1" d="M1134.8,1385h-178l-10.1,63.5h32.1c15.6,0,32-1.4,46.3-2.2c-9.4,12.1-19.6,25-26.5,36.7l-100.5,170.9h185.1
			l10.1-63.5H1052c-14,0-27.8,2.2-41.1,3.2c4.8-8.2,10.3-16,15.3-24.7L1134.8,1385z"/>
      <path class="st1" d="M1581.5,1355L1581.5,1355L1581.5,1355z"/>
      <path class="st1" d="M1375.8,1575.1c4-25.4,4.8-50.3,7-75.6l0.8-0.7l29.6,155.1h69.9l42.6-268.9h-69.9l-10.8,68.4
			c-4.9,31-4.4,61.7-6.5,92.7l-0.8,0.7l-32.5-162H1336l-42.6,268.9h69.9L1375.8,1575.1z"/>
      <path class="st1" d="M1181.7,1658.6c73.8,0,114.4-73.5,124.7-139.1c10.3-65.7-6.9-139.1-80.7-139.1
			c-73.8,0-114.4,73.5-124.7,139.1C1090.7,1585.1,1107.9,1658.6,1181.7,1658.6z M1175.2,1519.4c2.6-16.7,12.4-71.3,39.8-71.3
			s19.8,54.6,17.2,71.3s-12.4,71.3-39.8,71.3C1165,1590.7,1172.6,1536.2,1175.2,1519.4z"/>
	</g>
    <path class="st2" d="M1706,1468.2c0,0,36.1-60.3,89.8-112.4h-95.4c0,0-93.2,103.9-111.4,201.2c-18.2,97.3,40.9,126.3,95.1,126.3
		s102.5-47.4,113.8-124.8S1758.8,1443.5,1706,1468.2z M1705.8,1586.4c-8.1,25.6-27.8,30.2-34,18.4c-6.3-11.9-2.3-39.8,5.4-59.5
		s18.8-20.3,18.8-20.3C1719.7,1521.7,1713.9,1560.8,1705.8,1586.4z"/>
</g>
    <g fill="#FFFFFF">
    <path d="M630.6,921.4l-310.5,38.3l226-335.2L801,668.9L630.6,921.4z M673.3,435.6L629.9,500H1496c94.7,0,183.1-47,236.2-125.6
	l43.4-64.4H909.5C814.8,310,726.4,357.1,673.3,435.6 M1152.5,541.7L990.1,782.8l180.8-22.3l147.5-218.8H1152.5z M1368.8,541.7
	l-143.1,212.2l116.4-14.3c40.9-5.1,77.7-27.6,100.7-61.8l91.8-136.1h-165.8V541.7z M375.7,541.7l-6.4,9.5l502.3,87.4L754.9,811.7
	l180.3-22.1l167.1-247.8H375.7V541.7z"/>
    <polygon points="1461.4,1086.6 1271.4,1086.6 1243.9,1127.3 1368.5,1127.3 1243.9,1275.2 1457.6,1275.2 1457.6,1234.6 
	1336.7,1234.6 "/>
    <polygon points="284.6,1127.3 425.7,1127.3 453.1,1086.6 236.2,1086.6 236.2,1275.1 284.5,1275.1 284.5,1216.2 418.1,1216.2 
	418.1,1175.2 284.5,1175.2 284.5,1127.3 "/>
    <path d="M1726.2,1086.6h-65.4l-97.2,188.5h53.3l20.2-40.2h112.7l20.2,40.3h53.5L1726.2,1086.6z M1655.1,1199l38.5-76.5l38.2,76.5
	H1655.1z"/>
    <path d="M746.9,1108.4c-19.1-16.4-49.1-24.4-89.6-24.4c-40.6,0-70.6,8.1-89.7,24.3c-19.1,16.2-28.7,40.3-28.7,72.3
	c0,32.2,9.6,56.4,28.7,72.8c19.2,16.2,49.1,24.5,89.7,24.5c40.5,0,70.5-8.3,89.6-24.7c19.1-16.5,28.9-40.5,28.9-72.6
	C775.8,1148.8,766.1,1124.8,746.9,1108.4z M710.7,1223.6c-10.7,9-28.5,13.6-53.4,13.6c-25,0-42.8-4.6-53.6-13.6
	c-10.8-9-16.2-23.5-16.2-42.9c0-19.5,5.4-33.8,16.2-42.7c10.9-8.9,28.7-13.3,53.6-13.3c25,0,42.8,4.6,53.6,13.5
	c10.9,9,16.2,23.1,16.2,42.6C727.2,1200.3,721.8,1214.6,710.7,1223.6z"/>
    <path d="M1133.3,1275.2h-66.1l-111.6-90.9h79.7c16.5,0,35.8-2.3,35.8-26.9v-2.8c0-24.8-19.5-26.9-35.8-26.9H948v147.8h-48.3v-188.8
	h44h105c39.2,0,71.1,26.3,71.1,65.7c0,36-26.6,61-61,65.2L1133.3,1275.2z"/>
    </g>
</svg>
